<?xml version="1.0" encoding="utf-8"?>
<!-- Generator: Adobe Illustrator 24.3.0, SVG Export Plug-In . SVG Version: 6.00 Build 0)  -->
<svg version="1.1" id="Layer_1" xmlns="http://www.w3.org/2000/svg" xmlns:xlink="http://www.w3.org/1999/xlink" x="0px" y="0px"
	 viewBox="0 0 300 300" style="enable-background:new 0 0 300 300;" xml:space="preserve">
<style type="text/css">
	.st0{fill-rule:evenodd;clip-rule:evenodd;fill:#503372;}
	.st1{fill-rule:evenodd;clip-rule:evenodd;fill:#FFFFFF;}
</style>
<path class="st0" d="M0,0c40.9,0,81.8,0.1,122.7,0.1c56.2,0,112.4,0,168.6,0c3,0,6.1,0,9.5,0c0,100.3,0,200,0,300.3
	c-3.4,0-6.5,0-9.5,0c-93.8,0-187.5,0-281.3,0c-3.4,0-6.7,0.1-10.1,0.2C0,200.5,0,100.2,0,0L0,0z"/>
<path class="st1" d="M150.1,150.5L150.1,150.5c-1-2.6-1.5-3.9-1.9-5.1c-8-21.3-16.1-42.6-23.9-64c-1.5-4.1-3.6-5.7-8-5.5
	c-7.1,0.4-14.3,0.4-21.5,0c-5.3-0.3-6.5,1.8-6.4,6.6c0.2,23.5,0.1,47,0.1,70.5c0,21.7,0.1,43.3-0.1,65c0,4.8,1.5,6.5,6.3,6.3
	c7.1-0.4,14.3-0.3,21.5,0c4.8,0.2,6-1.8,6-6.2c-0.1-20.5-0.1-41-0.1-61.5c0-5.8,0-11.6,0-16.6c4.4,12.4,9.1,25.5,13.9,38.6
	c4.8,13.3,4.8,13.2,19.1,13c3.4-0.1,5.1-1.3,6.2-4.4c4.1-11.6,8.5-23.1,12.7-34.7c1.6-4.4,2.8-9,4.3-13.7c0,26.7,0.1,53.1-0.1,79.4
	c0,4.5,1.4,6.3,6,6.1c6.3-0.3,12.7-0.1,19-0.1c8.5,0,8.5,0,8.5-8.3c0-31,0-62,0-93c0-13.8-0.1-27.7,0-41.5c0-4.1-1.3-5.6-5.5-5.4
	c-7.8,0.3-15.7,0.2-23.5,0c-3.4-0.1-5.2,1.1-6.3,4.3c-3,8.5-6.3,16.8-9.4,25.2C161.6,120,156.1,134.5,150.1,150.5L150.1,150.5z"/>
</svg>
